# xmcd CD database file generated by Grip 2.9
# 
# Track frame offsets:
#       182
#       12432
#       25167
#       39922
#       52390
#       64752
#       77142
#       93552
#       104665
#       117047
#       127842
#       142787
#       156605
#       169892
#       180660
#       191747
#       206022
#       218580
#       229340
#       239345
#       254165
#       266620
#       279902
#       294127
#       306415
# 
# Disc length: 4253 seconds
# 
# Revision: 3
# Processed by: cddbd v1.4b41PL1 Copyright (c) Steve Scherf et al.
# Submitted via: Grip 2.9
# 
DISCID=73109b19
DTITLE=Elmore James - The Master Of The Slide Guitar
DYEAR=1900
DGENRE=
TTITLE0=Blues Before Sunrise
TTITLE1=I Was A Fool
TTITLE2=Sunnyland
TTITLE3=Standing At The Crossroads
TTITLE4=Sno Nuff I Do
TTITLE5=Happy Home
TTITLE6=Long Tall Woman
TTITLE7=So Mean To Me
TTITLE8=My Best Friend
TTITLE9=No Love In My Heart
TTITLE10=It Hurst Me Too
TTITLE11=Hand In Hand
TTITLE12=Dust My Broom
TTITLE13=Coming Home
TTITLE14=Look On Yonder Wall
TTITLE15=I Believe
TTITLE16=Cry For Me Baby
TTITLE17=Take Me Where You Go
TTITLE18=Mean and Evil
TTITLE19=Wild About You Baby
TTITLE20=Dark and Dreary
TTITLE21=Goodbye Baby
TTITLE22=Dust My Blues
TTITLE23=Mean Mistreatin' Mama
TTITLE24=The Sky Is Crying
EXTD=
EXTT0=
EXTT1=
EXTT2=
EXTT3=
EXTT4=
EXTT5=
EXTT6=
EXTT7=
EXTT8=
EXTT9=
EXTT10=
EXTT11=
EXTT12=
EXTT13=
EXTT14=
EXTT15=
EXTT16=
EXTT17=
EXTT18=
EXTT19=
EXTT20=
EXTT21=
EXTT22=
EXTT23=
EXTT24=
PLAYORDER=
